<mxfile host="app.diagrams.net" modified="2024-04-27T11:09:13.113Z" agent="Mozilla/5.0 (Windows NT 10.0; Win64; x64) AppleWebKit/537.36 (KHTML, like Gecko) Chrome/124.0.0.0 Safari/537.36" version="24.3.1" etag="Ua1In1v1RdbnyrRqt74-" type="github">
  <diagram name="Page-1" id="3irY8fL_UrNZU5FSW00O">
    <mxGraphModel>
      <root>
        <mxCell id="0" />
        <mxCell id="1" parent="0" />
      </root>
    </mxGraphModel>
  </diagram>
</mxfile>
